<svg width="200" height="200" fill="#FFFFFF" xmlns="http://www.w3.org/2000/svg" xmlns:xlink="http://www.w3.org/1999/xlink" version="1.2" baseProfile="tiny" x="0px" y="0px" viewBox="0 0 100 100" xml:space="preserve"><path d="M93.484,50.202L80,44.423V32.5c0-1.381-1.119-2.5-2.5-2.5h-10c-1.381,0-2.5,1.119-2.5,2.5v5.495l-5-2.143V26.18  c0-6.064-1.434-12.138-4.146-17.563C54.737,6.386,52.494,5,50,5s-4.737,1.386-5.854,3.617c-0.001,0-0.001,0-0.001,0  C41.434,14.042,40,20.116,40,26.18v9.672l-5,2.143V32.5c0-1.381-1.119-2.5-2.5-2.5h-10c-1.381,0-2.5,1.119-2.5,2.5v11.923  L6.516,50.202C5.596,50.596,5,51.5,5,52.5v10c0,0.758,0.344,1.476,0.936,1.95C6.384,64.81,6.937,65,7.5,65  c0.181,0,0.362-0.02,0.542-0.06L30.274,60H40v5c0,3.953,0.608,7.888,1.758,11.657L28.613,85.42c-0.695,0.463-1.113,1.244-1.113,2.08  v5c0,1.599,1.549,2.816,3.106,2.425L47.5,90.702V92.5c0,1.381,1.119,2.5,2.5,2.5s2.5-1.119,2.5-2.5v-1.798l16.894,4.223  c1.557,0.391,3.106-0.827,3.106-2.425v-5c0-0.836-0.418-1.617-1.113-2.08l-13.144-8.763C59.392,72.888,60,68.953,60,65v-5h9.726  l22.232,4.94C92.138,64.98,92.319,65,92.5,65c0.563,0,1.116-0.19,1.564-0.55C94.656,63.976,95,63.258,95,62.5v-10  C95,51.5,94.404,50.596,93.484,50.202z M90,59.383L70.542,55.06C70.364,55.02,70.183,55,70,55H60V41.292l30,12.857V59.383z   M10,59.383v-5.235l30-12.857V55H30c-0.183,0-0.364,0.02-0.542,0.06L10,59.383z M50,10c0.589,0,1.119,0.328,1.382,0.854  C53.749,15.588,55,20.888,55,26.18V37.5v20V65c0,6.325-1.758,12.604-5,18.021C46.758,77.604,45,71.325,45,65v-7.5v-20V26.18  c0-5.292,1.251-10.592,3.617-15.326C48.882,10.327,49.411,10,50,10z M70,35h5v7.28l-5-2.143V35z M25,35h5v5.137l-5,2.143V35z   M32.5,88.838l11.065-7.377c0.694,1.54,1.483,3.037,2.366,4.479L32.5,89.298V88.838z M67.5,88.838v0.46L54.069,85.94  c0.883-1.442,1.673-2.939,2.366-4.479L67.5,88.838z"/></svg>